<mxfile host="app.diagrams.net" modified="2024-04-06T15:38:08.550Z" agent="Mozilla/5.0 (Windows NT 10.0; Win64; x64) AppleWebKit/537.36 (KHTML, like Gecko) Chrome/123.0.0.0 Safari/537.36" etag="eqUmDlQK9LRCAQu_Kt2N" version="24.2.2" type="device">
  <diagram name="PÃ¡gina-1" id="ymKvlUPIt1udbRpZDruj">
    <mxGraphModel dx="928" dy="508" grid="1" gridSize="10" guides="1" tooltips="1" connect="1" arrows="1" fold="1" page="1" pageScale="1" pageWidth="827" pageHeight="1169" math="0" shadow="0">
      <root>
        <mxCell id="0" />
        <mxCell id="1" parent="0" />
        <mxCell id="VKKiK4Q3fec19sRekU4R-1" value="" style="shape=image;verticalLabelPosition=bottom;labelBackgroundColor=default;verticalAlign=top;aspect=fixed;imageAspect=0;image=data:image/png,iVBORw0KGgoAAAANSUhEUgAAAx4AAADSCAYAAADE+BZsAAAAAXNSR0IArs4c6QAAAARnQU1BAACxjwv8YQUAAAAJcEhZcwAADsMAAA7DAcdvqGQAABOwSURBVHhe7d0xqyxHdgDgkVOF8hpZeKNNLXDwQCgS2kxSuqBULA4XjH6JMDg0ixMFAgWKlCpcSSgwyNHCRmuwMH5/QIms0pvDlmqrqnu6u3q6534fNK+7q+pUdc3cN3Vm+s596YcfXQAAAAb6m+u/AAAAw0g8AACA4SQeAADAcBIPAABgOIkHAAAwnMQDOv7u9d9e9wAAWEPiAQ2jk44UX2IDADwV/o4Hu4lF9v9++/uf/j2qMhlYO97adW/dxwi1pOjojx0AcFybJR61RUrJomU/+eNxlHmvLcCPZsS8ta776PORz0U48mMHABybW62gkBbXeyyw9+pnqaOPDwA4l80Tj1is1DY4Os9TAIAxNr/Vas7CLa+b385Rtu3d6jHV35K2+fla+yRv0+ujZU7c3K1jSlr1krl1p66jpRYvYuXXUrPHWJJevKVjWHLdrfNhScxQa5u06vfksZa0BwBI7pp4lMpF1Rxlf3u17anNwZzYS9sledtem7n1Qm1MNbfMXRlzy3EkS+MtabfFdW8ZM1l6/S15vFvaAQDkDpF49BZevbLkXm2Tpe3vXZasaVszN15yS38jx5KXLR3D3LKkVT4iZnJLWc/SdgAAuc1/xyMtUsqt59bFUW/hs6Ztbk7bW+JvMa6pdlPznLtlPHPirrm+LeYmtyTe0vnYeuzJmphLrwMAYA93/VarJQuzZGm7ZE3bteb0/agLwqlr33NuUl97PQ9G9LPX2AEAtrTLt1otsbRdsqbtSGnh3NruoTdPS+ZwzbzX5iS2JbYe/9ZzNWVNzL3HCgAwh7/jAQAADHfYxKP3TvfUu+Br2o6U3m2es+1l63laE682D7Vtrj3Hv+a6W9bEHDEeAIC1fOKxo6kF4VNeFO45N099rgEA7uFwiUf+rnZtcdhbMK5pO9LRxnXLeOZ8ynCkx2xJvKXzsfXYkzUxl14HAMAe7v6Xy1umFli9GEvbTo0rjztV59ZxJb02t46p1decOqHVZ0svXorVu5YtxzIVK9lyDEuvu3U+WRoz6bVNam168ni3tgUACIe91aq1wJmz8FnTdqRe/1uPbc08JUvG02qz91hS/SXxlo5hSbwpa2IuGSsAwGibfeJxJr13i+EMPIcBgLPxy+UAAMBwD5V4pHeBY2vplcG9eQ4DAI/q4W61Khdl+a0oeZlbVDgqz2EA4BE95O94zHlH2KKNI/McBgAezUP/cnlt8Waxxpl4DgMAj+JJfqsVAACwL99qBQAADCfxAAAAhpN4AAAAw0k8AACA4SQeAADAcBIPAABgOIkHAAAwnMQDAAAYTuIBAAAMJ/EAAACGk3gAAADDSTwAAIDhJB4AAMBwEg8AAGA4iQcAADCcxAMAABhO4gEAAAwn8QAAAIaTeAAAAMNJPAAAgOEkHgAAwHASDwAAYLiXfvjRdX+1Tz755PL5559fvvnmm8t33313PQsAAKz16quvXp49e3Z59913L++///717Hlsknj8+c9/vnz44YeXL7744noGAAAY5e2337589NFHl1/+8pfXM8e3SeLxzjvvXL7++uvrEQAAMNobb7zx091GZ7H6dzw+/vhjSQcAAOzsq6+++mktfharE4/PPvvsugcAAOzpTGvx1YnHt99+e90DAAD2dKa1+Orf8XjllVeuewAAwN6eP39+3Ts2f8cDAAAYTuIBAAAMJ/EAAACGk3gAAADDSTwAAIDhJB4AAMBwEg8AAGA4iQcAADCcxAMAABhO4gEAAAwn8QAAAIaTeAAAAMNJPAAAgOEkHgAAwHAv/fCj6/4ir7zyynVvjN/84U/XvRc+ffNX171jiPHde1z/9p//cPndP/339ejFcZKf20rETkbEZ74tHovnz5//7Oe4PF4jxUpG/z8BAE9ZvN4e3aE/8cgX9bHtKfVfJj68WODukXCkRXVsWxsRM9eLn19XbEukdvFYbJV0JOl4i//AIrakAwBIDn+r1b0/SZjq/x4J0Rx7JQejlIvqpYvzI8ofm3x/b7WkI2yVfAAAhEPfapU+bWgt6suy/Dj2808ranHy8iRvX1PGiHq12Emr/3Q+HbfK5yoX47GAzc+3FrWttkks+qfiRL2WaD+nbX48FTeJ2KEWK+qUZTW1/mrtQ6v/W+P3zvf6T1rtk3IctXq9xCOZKp+ytj0AMM9Z3iw8ZOIxZ+Efi/eQH0f7/Lhc2NfOlXp1oqxVpzyfH6f9JD+uxegpF521RWhrYdpbsCaxaI065XHoxcnLavXKc1P1c6k8yesnveMy3pw+tmrf0qqTziet/qM8VyvP2yd5nblJwZrkQeIBAPs4S+JxyFut0iI8FuKxny/MY+G+1JyF/lQfvfZLEolblAvREfL4S/qa0yYWxLWF9JSp8S0Zc67Xfu/5L6WyKM/3c/m5WjkAwN4O+zsetyz8a3W3WPiPTB5Gxp6SFqJp8RzbCFPxy8Xw0RbHU+OnLb3r4tMOAKD0MH/Ho7WQn0pg1tjik42R4+tJC/3Ytl5cp3h5/LM5+/jvLSUcaTvLx74AwD4OnXjMWdSXC/dRn36skScoW40vTxZGvysfC/Ellowt9VW26x0v6WOuVuyRfW5hr/kBAJjrsN9qlS/WS/niPdUpF/Z5u1acPEYyVefW8lZZOZ7yeK58MRkL9UgOWgvNVnmZVNxaHvJ6UzFCqtcrC7eMsYzZ6mNp/GSqPGnFL9smZXnvOLTOJ2UftXpTt0OtvV3K7VYAsI+z3GVwysSDsXoL2q3t2Rc/J/EAgMdwlsTjkLda5Z8W8LgkHfeVkoLWf1SSBgBga4dKPFLCEUmHTzseV0o4yluBuI9a8rFV0hGxW8kNAPC0HPovlwMAAH1neZPvYb5OFwAAOC6JBwAAMJzEAwAAGE7iAQAADCfxAAAAhpN4AAAAw0k8AACA4SQesEL8gbwjfn92a2z/9dVvf9rK/b1En0v7zduuidMyOn6yJu5Uuzz2mn5aRsc/g6d63XPkczNinkbHP4M11523XROn5ezxGU/i8UTNWSi3Fq5bGBEz14ufX1dsS6R26Q9oxnZES8YW/5nn25b+8Y3f/7Sd2cj5SUbEvIfWdeRzV9bpleWmynvydmvijBJjao3t3uO9d/9T8rmrjXX0+EfHP7t8fmqPUZwrz/MYJB5UlYvqpYvzI8oX4/k+fxHJQSQIXgD+Is1FPj8xR7dY2u5MWs+Z2vzldXtlW9giXoxthNr8MN9TmL8zX9fUz1/5+G3x88qxvPTDj677izziou03f/jT5dM3f3U9eqF1LpeXR/1enSmx2C/nOJKC0DqutY9zpV68mjLOlv2HWvvQ6v/W+L3zvf6TVvukHEer3ki98fXEf/y51rlkqm6tbdI6H1rx76037hhzTbTJ65RxWu3zetF/1G2N5Z7yMc4ZX69erezW+Lm8bdKKk5fn4nxS67sW/xa1sYS871xef07/ZZyyTqt8Tv/3Ftdfs9f4e2NIWvOblG1rx6HVRy/+vcX1xBhjP/+31DrPz5XrjqPyiUdDmTCUIrGIrSZi9Oq0xKIxbUueTK32cS7fj+O5Il7ethzj2v5b7XO19vlxrXyuXv/pOM7l+yGO877LOmcXLwTxYrG10fHXmhpT/iKZ7ydxXTV5WezX6h59fmpj3soe19ub3zjfs/bxabXJ+479OM71+o/jvG1ep1een4v9OD6S8prDEcY/Nf9TpsacYkWdqbpwDxKPiqkkIZKOOW5NOMKSxXJubfspefxaXyPHnxbxe15fKZVFeb6fy8/Vynv+528/qG73UntRHP1iduQXy3gxT/MSWy4f+6jrOPL83CoWSrl8bmvXOvr618Zf0z61TVs+B7ea6j8vr9WdKj+yNN60rZm/0c48v7CWxGOGWxKNXNnmlhjxTvqjvVM+11O+/r//v/+obnvKX7TjhTyXl48wOv4W8nk58jiPrDVvMbdpy+uk/ZjzLbRipX5iu5e4/mTNOGrXmF9fLfZU+RlsNX9nk675LI9d7bnJ45N4bGDqtqxbpcV2vJN+67vlj+CpX3/t04607SletGsvDOnFrFe+1uj4WzvDGI8oFkW3zl8sqKJ9vn+LVr8pVjz3jvDYjhhDfn2x5abKz+TMY18qf9yW/Gzs4Sk+Lrwg8Zgw9WlH/nscYctEZOod/xGfCKTFfhm3dzxiDKEVe2SfW1gzP7VPO9J2RFMvamtf9Na0T/N+9OfJPd1zfuJxvXXxkS+oom2+v7WjLtrWGv1zO8fRfz7THIyahzxur489HoeWezw+6ee4vOZ0vOTn++jPr6fMt1o11BKKXF5eJifl8RLlD0w5z1EeSUJePnUc8j5uLc/Lkq3778VPpsqTVvyybVKW945D63xS9tGqN1JvfD1z/qMvXxzK+lEeLyR5edk29OpMjacmHoOt5742/hhffq29/ZryGvN6eVkeKymP5xo1P0ntGudef1neu7Yl115rU57rjaEsC1GnFqvsr6cWv9Y+r3drf1N9zBlDq/+57vHzmZsaf5QvubapMZTlZR9532m/1zZEnanYc418fGrX27rGo43/yOKaj07iAQ8q/Sf01H8+zUGf+eGePP+O7eyPz1N7fqXrPQOJBzyop/yiHv8B+/+pzvxwT55/x3b2x+epPr/iuo9O4gEPKv9PyM8pADwuiQcAADDcWRIP32oFAAAMJ/EAAACGk3gAAADDSTwAAIDhJB4AAMBwEg8AAGA4iQcAADCcxGOh9H3JsQEAAH2H/wOC//4vzy///K9/3Uc6n8vr9MpyUa8sL9snrRgp8fBHFAEAuJezvBF+6MSjlxjMORdaZbfEb5F4AABwT2dJPA57q1Vv8T83Kei5JblYKj0JzvJEAACAkQ6beIxMCuKTDgAAYB8P8cvltU8v0rnYaknMVGKTt18q3YLlNiwAAHiAxKOVGKTEIra8TtqfSjrytmV7AADgdqdOPCIhmEokSqldbPkxAAAwxmkTj0gUbk068k8yom2+X1qTkPjlcgAAeOGwX6dbW/BHctBKBlrlraQiSXXL8lvap8SiNQeRdPg9DwAARjnLG92H/wOCR9dLPJKpcgAAWOMsicdDfKvVEaUngKQDAABekHgsFIlFS0o4JB0AAPCCW60AAODE3GoFAABwJfEAAACGk3gAAADDSTwAAIDhJB4AAMBwEg8AAGA4iQcAADCcv+NxQvl3NY+Y/9/84U/Xvcvl0zd/dd0bx194P68lz0WPNwBs6yx/x0PicWKjF3ApARmdeNxrETqn3/yHeOsxjr7uXvz8usKSsay5htHXDwBPSe21/YjcasXdHHnxGWOL7Sw/0HPENZX7e3q0OQUApvnEo6FcFJXX2SuPRWvUqc3Rmvgh+qmZ035K7xOP/HaspKxXlidlnd74k7iG2tzk51rHtfZxrtSLV1PG2bL/UGsfWv3fGr93vtd/0mqflOO4pf8w1T8A8EL5untUPvHoSAue2HL5gijKygc8FlVp65XFlpsTv2dt+ymRVKREIpKJPNGIhCUvj39DzEFLlKdtydhb7eNcvh/Hc0W8vG05xrX9t9rnau3z41r5XL3+03Gcy/dDHOd9l3WSWmwA4HFJPCrSYigWTC15ea3uVPspU/GnrG0/JU8kyqRiC1vO3whT8zty/HOen2v14qeyKM/3c/m5WvkcrdgAwDlJPO4gLabS4jG2EfL4o/oY6cxj38JTv34A4PFIPO4k3s2NJGRrefzY9pRut4rt1k9E0nzca9xH8NSvHwB4TBKPhqlkIC8fkTisjT+nTaqzdOzl73SUUrIR2xpT41s6/p602C/j9o5HjCG0Yo/scwtbzE9qd/TrBADm861WDeWCp7zOXnkqmzrO1eZwKn7NVJ2yn6hTnq8lEkmeRJR1emVJLQFJ/deuPeldf5KPvYwzdRzyPm4tz8uSrfvvxU+mypNW/LJtUpb3jkPrfFL2cWv7JGL06gAAf/26e1QSDzaXEo8y0aidm1p48tjmPP6eIwAw7SyJh1utuJu0oDzLDwrbmkooUrmkAwAei088GKJ3K1bJAvNp8XgDwLbSa+sZSDwAAODEzpJ4uNUKAAAYTuIBAAAMJ/EAAACGk3gAAADDSTwAAIDhJB4AAMBwEg8AAGC4wyYe6fuIz/KdxAAAQN9hE4/0hwnTJvkAAIDzc6sVAAAwnMQDAAAYTuIBAAAMJ/EAAACGO3ziEb9g7pfMAQDgvA6feKSEI77hCgAAOCe3WgEAAMNJPAAAgOEkHgAAwHASDwAAYLjDJh7xTVZ+qRwAAM7vsImHb7ICAIDH4VYrAABgOIkHAAAwnMQDAAAYTuIBAAAMJ/EAAACGk3gAAADDSTwAAIDhJB4AAMBwEg8AAGA4iQcAADCcxAMAABhO4gEAAAwn8QAAAIZbnXj84he/uO4BAAB7OtNafHXi8frrr1/3AACAPZ1pLb468fjggw+uewAAwJ7OtBZfnXi89957l1//+tfXIwAAYA/vvPPOT2vxs3jphx9d9xf74x//eHnrrbcu33///fUMAAAwyssvv3z58ssvL6+99tr1zPFtkniETz755PL5559fvvnmm8t33313PQsAAKz16quvXp49e3Z59913L++///717HlsmngAAADU+DseAADAcBIPAABgOIkHAAAwnMQDAAAYTuIBAAAMJ/EAAACGk3gAAADDSTwAAIDhJB4AAMBwEg8AAGA4iQcAADCcxAMAABhO4gEAAAwn8QAAAIaTeAAAAMNJPAAAgOEkHgAAwHASDwAAYLDL5f8BeTloFzpzMrsAAAAASUVORK5CYII=;" vertex="1" parent="1">
          <mxGeometry y="10" width="342" height="90" as="geometry" />
        </mxCell>
        <mxCell id="VKKiK4Q3fec19sRekU4R-2" value="" style="group" vertex="1" connectable="0" parent="1">
          <mxGeometry x="10" y="120" width="120" height="140" as="geometry" />
        </mxCell>
        <mxCell id="5XY2NphpAKxe1ON8l23s-1" value="" style="edgeStyle=none;orthogonalLoop=1;jettySize=auto;html=1;rounded=0;endArrow=none;endFill=0;" parent="VKKiK4Q3fec19sRekU4R-2" edge="1">
          <mxGeometry width="80" relative="1" as="geometry">
            <mxPoint y="30" as="sourcePoint" />
            <mxPoint x="120" y="30" as="targetPoint" />
            <Array as="points" />
          </mxGeometry>
        </mxCell>
        <mxCell id="5XY2NphpAKxe1ON8l23s-2" value="" style="edgeStyle=none;orthogonalLoop=1;jettySize=auto;html=1;rounded=0;endArrow=none;endFill=0;" parent="VKKiK4Q3fec19sRekU4R-2" edge="1">
          <mxGeometry width="80" relative="1" as="geometry">
            <mxPoint x="60" as="sourcePoint" />
            <mxPoint x="60" y="140" as="targetPoint" />
            <Array as="points" />
          </mxGeometry>
        </mxCell>
        <mxCell id="5XY2NphpAKxe1ON8l23s-4" value="valor" style="text;html=1;align=center;verticalAlign=middle;whiteSpace=wrap;rounded=0;" parent="VKKiK4Q3fec19sRekU4R-2" vertex="1">
          <mxGeometry x="60" width="60" height="30" as="geometry" />
        </mxCell>
        <mxCell id="Ro8MwomxtB0-7W5tqH75-1" value="Consola" style="text;html=1;align=center;verticalAlign=middle;whiteSpace=wrap;rounded=0;" parent="VKKiK4Q3fec19sRekU4R-2" vertex="1">
          <mxGeometry width="60" height="30" as="geometry" />
        </mxCell>
        <mxCell id="VKKiK4Q3fec19sRekU4R-3" value="display..()" style="text;html=1;align=center;verticalAlign=middle;whiteSpace=wrap;rounded=0;" vertex="1" parent="VKKiK4Q3fec19sRekU4R-2">
          <mxGeometry y="30" width="60" height="30" as="geometry" />
        </mxCell>
        <mxCell id="VKKiK4Q3fec19sRekU4R-4" value="[&quot;Paula&quot;, &quot;Smith&quot;,...,&lt;div&gt;&quot;MO&quot;,&lt;/div&gt;&lt;div&gt;12345]&lt;/div&gt;" style="text;html=1;align=center;verticalAlign=middle;whiteSpace=wrap;rounded=0;" vertex="1" parent="VKKiK4Q3fec19sRekU4R-2">
          <mxGeometry x="60" y="50" width="60" height="30" as="geometry" />
        </mxCell>
        <mxCell id="VKKiK4Q3fec19sRekU4R-5" value="" style="shape=image;verticalLabelPosition=bottom;labelBackgroundColor=default;verticalAlign=top;aspect=fixed;imageAspect=0;image=data:image/png,iVBORw0KGgoAAAANSUhEUgAAAxUAAAD3CAYAAABreXkeAAAAAXNSR0IArs4c6QAAAARnQU1BAACxjwv8YQUAAAAJcEhZcwAADsMAAA7DAcdvqGQAABZoSURBVHhe7d09zyzFlQDguZs6xLYwWkekRtoACRFZJgOnSKSIeBP/EicbIycOkAgckTrEIIKVcIRE5JWMLPMHnNx9z71zRFGu/piu7p6emeeRWre766Ora2bue850z8yz509OAAAAC/3H+V8AAIBFJBUAAEAXSQUAANBFUgEAAHSRVAAAAF0kFQAAQBdJBQAA0EVSAQAAdJFUQOHnb3x0XgMAYC5JBZxtnVBE/5IWAOAePXv+5LwOq8oA+h9ff/zi36OqA/3e8bbOe+1jbGko8Tn64wgAXM/ipGIo8CgJQvZTPh5HmfdWcH00W8zb0Hnf2nwMOfL4AYDrcPsTDy+C5D0C5b2Os4Yc6y2NGQC4nu6kog4+ygWOzvP0B2NXKcwTADCm+/anOcFGWbcMXOq2raAm60wdb0nbcn+rfSjbjB1jyJx+S5eOKQzVC3PrTp3HkFZ/2Vd5Li17jCWM9bd0DEvOe2h/WtJnarUNQ/Vbyj5a7abGAAA8rl2Tilq2HSpvqY+3V9sxrTmY0/fSdqFsO9Zmbr3UGlPLJXNX97nmOMLS/pa0W+O81+wzLD3/Sw2NHwDgKknFWFA1Vhau1TYsbX/tstDTtmVuf+GS4205lrJs6RjmloWh8i36DJeUXWrNvgCA+9P9mYoINuplzKWBz1gA09O2NKftJf2vMa6pdlPzXLpkPHP67Tm/NeamtKS/pfOx9thDT59LzwMAYG27fvvTkqArLG0Xetr2mnPsew32ps59z7mJY+31PNjiOHuNfchU8gIAsMm3Py2xtF3oabulCMaGlmsYm6clc9gz7605yWWJtce/9lxN6elzy7GWj8cW5w0A3Ae/UwE0SSgAgLkOk1SMvUM99e51T9stRSA2Z9nL2vPU019rHlrLXHuOv+e8h/T0ufV4LnkcAIDH5ErFhqaCvaUB3z3Yc24efa4vVc6VhAIAmOPqSUUZtLQCv7FgsKftlo42rkvGMyeIPNJjtqS/pfOx9thDT59Lz2PMkjYAALv/ovaQVlCUot1YH0vbTo2r7HeqzqXjCmNtLh3T0LHm1ElDxxwy1l/0NXYua45lqq+w5hiWnvfQ/rC0zzDWNrTatEz1U5rbJwDwGA5z+9NQkDIneOlpu6Wx4689tp55CkvGM9Rm77FE/SX9LR3Dkv6m9PS5ZKwAAGtafKXiloy9ywu3wHMYADgyH9QGAAC63HRSEe/e5jJkrAyuzXMYALgHN3/7Ux1wlbeHlGVuG+GoPIcBgFt3F5+pmPNOroCMI/McBgBu2V19ULsVmAnEuCWewwDALXqIb38CAAC249ufAACALpIKAACgi6QCAADoIqkAAAC6SCoAAIAukgoAAKCLpAIAAOgiqQAAALpIKgAAgC6SCgAAoIukAgAA6CKpAAAAukgqAACALpIKAACgi6QCAADoIqkAAAC6SCoAAIAukgoAAKCLpAIAAOgiqQAAALpIKgAAgC6SCgAAoMuz50/O6xf75JNPTp999tnpq6++On333XfnvQAAQK9XX3319Oabb57ee++90wcffHDee0yLkoq//e1vp9/97nenP//5z+c9AADAVn7zm9+cfv/7359++ctfnvccy6Kk4t133z19+eWX5y0AAGBrb7311ou7hI7o4s9U/PGPf5RQAADAzr744osXsfgRXZxU/OlPfzqvAQAAezpqLH5xUvH111+f1wAAgD0dNRa/+DMVr7zyynkNAADY2/fff39eOw6/UwEAAHSRVAAAAF0kFQAAQBdJBQAA0EVSAQAAdJFUAAAAXSQVAABAF0kFAADQRVIBAAB0kVQAAABdJBUAAEAXSQUAANBFUgEAAHSRVAAAAF2ePX9yXp/llVdeOa9t4/3Pvz2vvfTp26+f144hx3ftcf3P//7n6b//6//OWy+3Q7lvLdl32KL/ezdn/rZ8/Grff//9j17H9XaP6Cts/f8EADyy/Ht7JIe6UlEG7LnsKY5fJzW8DHS3DnYjqM7l3uw1f3O0EojYXuM/p+xbQgEAj+dwtz9d+wrA1PGvkezMsUfgupUIiHP8sdxjYjFlj8evlVCktRILAOAxHer2p7hKMBSw12Xldq6XVxla/ZTloWzfUveR9Vp9h6Hjx/7YHiqfqw62Mwgt9w8FpkNtQwb1U/1kvSHZfk7b8phjfYaybhjqv1TX6Smfe/xWm1JrX8h+Q6s8lHVC1qv3p1Y/Y0lFmCqf0tseAJjniG8EHuJKRQTbGXDnehmAzxH1I1AfC/izvK5XbrfKQ7YfUvdfj39qfFMyIM2l1NpXqtu26pZ1cvsSZftL284x1n9uZ3lojSHLs06a0z62s7zVd4/yuC3lseu65XarPM0J+KP8iP9JAQDHd4ikogy2c70MvusA/VJTCUGYOsZY+zn998igcktl/0uONadNBuNDQXnsz6U21f/Y+KO/nvZhqn3IcbfGDwBwzw7zmYpLgvpW3TWC+i0Tgy37nhIBcQbrWwW8U/3XQflQ4D4neJ9T51Ll+IfOIQ2NvbTmGKOvuWO7hri64dYnAHhsh/ug9lxDQfpUctJjjSsSW45vTASmuawdmEZ/Zf+3qBz/Ec+jHNfREotIJtw6BQCP7VBJxZyAvQ7Kt7pq0aNMPtYaXxlIbh1UZpKwxKVjWytInpqfqWOsMQYAgEd1mG9/KgPxWhmYR506aC/bDfVT9hGm6lxaPlRWj6fenqsMejMQz8B/KCAeKq8ThkvLU1lvqo8U9VplY+2H2pSmjn9pecg6c46fWnVbfYey/5ah8qGxlPVadaZuUeq9hcktUACwjyPeHXATSQXbagXCW9nzWNdw5POTVADAfThiUnGYr5Tl/kkorisC/qH/hCQEAECPqyYVkUxkQuEqxf2KYDuWe3VL59dKLNZKKLLvocQFALhfh/pFbQAAYNwR38C72a+UBQAAjkFSAQAAdJFUAAAAXSQVAABAF0kFAADQRVIBAAB0kVQAAABdJBUP6h5/oCx/eK0+t79+8dGLpV7npa3nZ+v+97TF+Ms+h/ofem4DwFFIKrgr8eOMfqCRe+N5DcDRSSoAZvrVWx+/WACAH3v2/Ml5fZZ7fLfs/c+/PX369uvnrZeG9pXK8qw/VmdI3NIQ81re2lDOc13eegzq2yIuqZP9p3o7TPU/5/hba417ytitLHXwmHVb+2PfWHmtFZgu7T+NlddjGOrjGnrPb+v2ub/UOsbY8es+WnXmGHuO52vwGq89APZVx11H4ErFWZ0M1DJpyKUl+xirMySDhQwI6idLWd4qC3PbZ51LDbWfc/yjK4O8oaAw9sfSCjLHynN/LLld6+k/jJWXZbkcTc/5hS3Lc38uLWPty7JcAODeSCqeTCUAmVDMcWkykcpAvQ7aQ2tfaax9JhRLzWk/dvwpf//ph81lL2WQNxTwTQWCvYFib/+9x7+2rc9/6/nrbb+GeN31vM4BoIekouGSJKJUt1maYEw5YuAQiUe5XOIX//xDczmSeLc5l6XyHeuW3v7H2scxx8pvwSXjb83xJe2XGOv/HuYfAKZIKhaYulXqEeW7pOUyV+sqRSxHEYFgBIa5LJF9tPT2P6d9WX5rge0e89Pj3ucfAOaQVFSmrlKUn5tIaycZc243qpVXB1pXCqbK01DZWJswVT6mdZUiliPaOiDs7X/L8cVj3PM4r+HI8xO27n/MER4fAB6XpKIwlFDEvigbSzjGEpE5MiCI5dKEIuuXQUXZR11e9x/bQ2Whbh9LqVVe17ll+e7y0oAx22UfdT+9/U+1z7Jcov4t2Xp+et37/APAHL5S9gAiADev/czj9szxyyThWonB1Px7fAAeQ/x/fzSuVACT4j8vAesPV52OxuMDwLW5UnEAgoF1xDwm88la6kTiGlcpPLcBKJV/F45CUgEAADfkiEmF258AAIAukgoAAKCLpAIAAOgiqQAAALpIKgAAgC6SCgAAoIukAgAA6CKpOJj43uFc+LGhuYkfJ8sfKCvXU73do9V/r+xzrN+x8rJsrN5SU/33Hi/77O2ndElf5bGHxjH03AMAXpJUHEgELPHjgrnw7645Nxlsrv2LytHfNX6l+Shu4fy9JgFgnKQCZrpm8HsLgTcA8LiePX9yXp/lHt+te//zb0+fvv36eeuloX2lsjzrj9WZklcqark/b70YqlMq69Rloe5jqv3U8feQ47hUXGGIgLy8raUM0OvyVvBetg11nd7ykOOolW1b5deW485xTp1DuOT801j/YewYc44/x9hz8NqvDwAeR/7NORJXKs7qZKCWSUMuLdnHWJ2WeGLkk6NcL8W+CFZiqctzO8tDWSf3Z1n+m6bah9jO8rrsFmTAmsFkHWSW5a2yMNY+ZHnWSXPbD2n1eTRxPjnO+tx6zz+M9R/K8jxGWuP4AMA4ScWTqQQgE4o5LkkmUhnMl+ul1r5SWT5Vt2Wq/ZI+099/+mFz2VMZaNZBZ2jtK421z4B2zFj7e7D1+Y+1Ocr8x2uk53UCALdMUtFwSRJRqtss6WOOpYFLXm1oibJyWdMv/vmH5nJUWwWdjywC/3K5VE9bAGB7kooFpm6VOqKxhCLku6zlspbWVYpYeByRqNXLXJFILGkHAOxHUlGZukpRfm4iHSHJKK8uLLnSsPbViVLrKkUs15JB6iXKd8hb75ZPvYM+1X4P8Rhv+TiPWeuch/qZmt+p8jVcc34B4Np8+9NZK1koleV14lFvLxUBSWt+h/aX6mCmrN8KdOr+xurUx58zni0sPW4dRNYJRZRPJRlz+ihdUl6XpawzVT5XPsZrP3Yxvvp8ps4/XHJ+dZ2x/qOsHsNU+7nGnoNbzS8A1PJvzpFIKrgZS5MKfmAO+0zNn/kFYA9HTCrc/gQPIP7zEfBux/wC8OhcqeBmlFm55yF78twD4EjKv0tHIakAAIAbcsSkwu1PAABAF0kFAADQRVIBAAB0kVQAAABdJBUAAEAXSQUAANBFUgEAAHSRVFTie39zYZ73P//2vDZPPbd//eKjF0u9znbuaY6nnj9eywCwPUlFIYKP+HG/XFhfzvGjuacg/tbE801iAQDbklSwm0dNKLg+iQUAbOvZ8yfn9VnuOSgcCnpzfwYlQ3VKZZ1WMFP3MdV+6vhj4vakT99+/Ue3KcV2yvJUb4f6FqdW/axTt015HkvU7/T/6q2Pz2svy2I765Rlaax9GqqT/ad6O4y1bRk7/lhZatWZMtZHT//RNuqXfYydQ13W236uqeff0tcXAOwt/2YdiaTiSeuBKc+zDjbq4KRVHlpzVbcNU+1b262+h9TBfmu7lSSkers21V+4dMy1DDxb6mCzrtsqD3Wdoe2xslD3V2+Huk2tLG/1P9Z2jrE+Yz0MbU+Z074+Xl0Wlra/xNjzsH6dAcBR5d+sI3H705MIIjKQKNdLU4FGWT5Vt2Wq/ZI+S2WQP5YgLLVFn2lOEHlJeV23J0hNY/3P0Xv8MZfOX+/4W+17jz/Vfg3xGut9nQHAo5JULLA08Jh6l7RcjiQShrj6kMvR7RGA1iJwL5dLjbWN8xkrX0PZ/xbH6O27tz0AsC1JxU7GEoqQ75KWy5FEYpHLLSQWe4vAv17mikB5ql1ZvkVgXfafy1rmnN+Y3vYAwPYkFSspry4sudKwxtWJ6GNOP63PPKSjJgy9gXTZvtXXVHkaKhtrc4m1+qlNnd+ax42+hoL/Ocfpbb/U3NcPAPDvfFC7EAFF6/yG9pfqYKSs3wpU6v7G6tTHHxpP9lGX1YlCK6HIOnkloqwz1b5Vv3WMoXHPUQeTZdA5FoSmsfahLI+yus8sb5WFuv8wdYxS3b517FS3naM+dmyPHSPMPc6c8Y3V6W0/19Tzb+j1AwBHk3+zjkRS8QCGgvy99SQVe4sgdkng+oh652qvuZ7z/Lul5ygAj+uISYXbn9hNBGtHfBFw/6aShSiXUADAcpIKdiWxYG9zkoUol1AAwHJufwIAgBtyxDdoXakAAAC6SCoAAIAukgoAAKCLpAIAAOgiqQAAALpIKgAAgC6SCgAAoIvfqbgB5XcRbzH/73/+7XntdPr07dfPa9sZ+zGyrc91C3N+XA0AYC1+p4JFImDdMmiNRGKPZCJMJRR5rlue79pirEd8cQMA7EVSwW7u+R19iQUA8Mjc/nRWB4T1eY6VZ7CcdVpz1NN/yuO0zGk/JW6DGrpiUd4iFep6dXmo64yNPwyV5/48x6E6pbJOXRbqPqbaTx0/ZL0hU+0BAOao45YjcKWiEMFeLqUyGMyy+sHMgDKWsbJcSnP6H9PbfkomDOVtUmUSkclIWZ7/ppyDlijL8ZbrpWwfS12e20Pnn/uzLP9NU+1DbGd5XZbGygAA7pmk4kkGjGPK8lbdqfZTpvqf0tt+Spkk1AlDrxhvjrlcL02dU1k+Vbdlqv2SPmvRxxr9AAAcjaRiBxFIRuKSyxbK/rc6xlEsDcxjXobaPtL8AQCsTVKxk3yXOhOMtZX957KnuAUql7WvZKwh5nxsTuq5G6sLAMCPSSrOpgL9snyLpKC3/zltos7SsdefoahFIpHLNewxf7165h8A4Mh8+9NZHezV5zlWHmVT26XWHE713zJVpz5O1qn3t5KEUCYIdZ2xstBKLuL4rXNPQ+VT7UJ9/mX9uizU/Y3VqY8/NJ6h/SmPMVYHAGBKK265NkkF3SKpqJOI1r6poPvWzTm/e58DAGB7R0wq3P7EbiKYPuKLYA1TyUKUSygAgHvlSgWrGLs9qnZvwbVkAQDYU8QeRyOpAACAG3LEpMLtTwAAQBdJBQAA0EVSAQAAdJFUAAAAXSQVAABAF0kFAADQRVIBAAB0OUxSEd+3e8Tv3AUAAMYdJqmIH9WLRWIBAAC3xe1PAABAF0kFAADQRVIBAAB0kVQAAABdDpdU5Ie1fWAbAABuw+GSikgm8pugAACA43P7EwAA0EVSAQAAdJFUAAAAXSQVAABAl8MkFfmNTz6gDQAAt+UwSYVvfAIAgNvk9icAAKCLpAIAAOgiqQAAALpIKgAAgC6SCgAAoIukAgAA6CKpAAAAukgqAACALpIKAACgi6QCAADoIqkAAAC6SCoAAIAukgoAAKDLxUnFz372s/MaAACwp6PG4hcnFW+88cZ5DQAA2NNRY/GLk4oPP/zwvAYAAOzpqLH4xUnFb3/729M777xz3gIAAPbw7rvvvojFj+jZ8yfn9dm++eab069//evTv/71r/MeAABgKz/5yU9Of/nLX06vvfbaec+xLEoq0ieffHL67LPPTl999dXpu+++O+8FAAB6vfrqq6c333zz9N57750++OCD895j6koqAAAA/E4FAADQRVIBAAB0kVQAAABdJBUAAEAXSQUAANBFUgEAAHSRVAAAAF0kFQAAQBdJBQAA0EVSAQAAdJFUAAAAXSQVAABAF0kFAADQRVIBAAB0kVQAAABdJBUAAEAXSQUAANBFUgEAAHSRVAAAAF0kFQAAQBdJBQAA0EVSAQAAdJFUAAAAXSQVAABAF0kFAADQRVIBhZ+/8dF5DQCAuSQVcLZ1QhH9S1oAgHv07PmT8zqsKgPof3z98Yt/j6oO9HvH2zrvtY+xpbHE5+iPJQBwHYuTirHAIwlA9lM+HkeZ91ZwfTRbzNvQed/afAw58vgBgOtw+xMPL4LkPQLlvY6zhhxruQAADOlOKlrBRy5wdJ6nP5hzlQIA4N+dTv8PWLElTeitDs8AAAAASUVORK5CYII=;" vertex="1" parent="1">
          <mxGeometry x="370" y="10" width="319.44" height="100" as="geometry" />
        </mxCell>
        <mxCell id="VKKiK4Q3fec19sRekU4R-7" value="" style="group" vertex="1" connectable="0" parent="1">
          <mxGeometry x="440" y="130" width="120" height="140" as="geometry" />
        </mxCell>
        <mxCell id="VKKiK4Q3fec19sRekU4R-8" value="" style="edgeStyle=none;orthogonalLoop=1;jettySize=auto;html=1;rounded=0;endArrow=none;endFill=0;" edge="1" parent="VKKiK4Q3fec19sRekU4R-7">
          <mxGeometry width="80" relative="1" as="geometry">
            <mxPoint y="30" as="sourcePoint" />
            <mxPoint x="120" y="30" as="targetPoint" />
            <Array as="points" />
          </mxGeometry>
        </mxCell>
        <mxCell id="VKKiK4Q3fec19sRekU4R-9" value="" style="edgeStyle=none;orthogonalLoop=1;jettySize=auto;html=1;rounded=0;endArrow=none;endFill=0;" edge="1" parent="VKKiK4Q3fec19sRekU4R-7">
          <mxGeometry width="80" relative="1" as="geometry">
            <mxPoint x="60" as="sourcePoint" />
            <mxPoint x="60" y="140" as="targetPoint" />
            <Array as="points" />
          </mxGeometry>
        </mxCell>
        <mxCell id="VKKiK4Q3fec19sRekU4R-10" value="valor" style="text;html=1;align=center;verticalAlign=middle;whiteSpace=wrap;rounded=0;" vertex="1" parent="VKKiK4Q3fec19sRekU4R-7">
          <mxGeometry x="60" width="60" height="30" as="geometry" />
        </mxCell>
        <mxCell id="VKKiK4Q3fec19sRekU4R-11" value="Consola" style="text;html=1;align=center;verticalAlign=middle;whiteSpace=wrap;rounded=0;" vertex="1" parent="VKKiK4Q3fec19sRekU4R-7">
          <mxGeometry width="60" height="30" as="geometry" />
        </mxCell>
        <mxCell id="VKKiK4Q3fec19sRekU4R-12" value="display..()" style="text;html=1;align=center;verticalAlign=middle;whiteSpace=wrap;rounded=0;" vertex="1" parent="VKKiK4Q3fec19sRekU4R-7">
          <mxGeometry y="30" width="60" height="30" as="geometry" />
        </mxCell>
        <mxCell id="VKKiK4Q3fec19sRekU4R-13" value="[&quot;brÃ³coli&quot;, &quot;helado&quot;,&lt;div data-sider-select-id=&quot;6268cff4-682f-44d4-8d1c-aed39b8f1a96&quot;&gt;&quot;croquetas de papa&quot;&lt;span style=&quot;background-color: initial;&quot;&gt;]&lt;/span&gt;&lt;/div&gt;" style="text;html=1;align=center;verticalAlign=middle;whiteSpace=wrap;rounded=0;" vertex="1" parent="VKKiK4Q3fec19sRekU4R-7">
          <mxGeometry x="60" y="50" width="60" height="30" as="geometry" />
        </mxCell>
        <mxCell id="VKKiK4Q3fec19sRekU4R-14" value="" style="shape=image;verticalLabelPosition=bottom;labelBackgroundColor=default;verticalAlign=top;aspect=fixed;imageAspect=0;image=data:image/png,iVBORw0KGgoAAAANSUhEUgAAAwYAAADMCAYAAADJXbSbAAAAAXNSR0IArs4c6QAAAARnQU1BAACxjwv8YQUAAAAJcEhZcwAADsMAAA7DAcdvqGQAABJxSURBVHhe7d297xxFmgDg8aWEXk5eJCJSyCxZRAgymxTJqYUuP/GXoM1PaBMCSwRETgnByBkbIRERrHVa/wMkvikz71LUVX939fTMPI/U8kxX1dvVNfPzvO983nl9dAAAAG7af5z+BQAAbpjCAAAAUBgAAAAKAwAA4EhhAAAAKAyg9J8ffH66BABwOxQGkGldFKT4Cg8AYI/8jgFNRRL8vz999ebfvSqT9aXzrZ332sdoqa942fttCQDMs6gw6EsegiRiO/ntsZd1ryXIe9Ni3brO+9LWo8ue5w8AzOOtRHCUEt0tkt2tjrOGmGu+AQDXa5XCoJZAxAZ75376hzGvFgAA12mVtxKNSazyvnnyUY6tJSbRZ+h4c8bm+2vjk3xM3zG6jImbmzqnpKtfMrbv0Hl0qcWLWPm51Gwxl6Qv3tw5zDnvrv1hTsxQG5t09Z9jaA4AwOXavDAolUnPGOXxthrbp7YGY2LPHZfkY/vGjO0XanOqmbJ2Zcw155HMjTdn3BrnvWbMZO75T9U1fwDg8p2tMOhLjPraknONTeaOP3dbsmRszdh4yZTjtZxL3jZ3DmPbkq72FjGTKW1jlMdO5sQBAPZvlc8YpOSh3PpMTV76EpElY3Njxk6Jv8a8hsYNrXNuynzGxF1yfmusTW5OvLnrsfbckyUx557HXHPODwC4DJt/K9HcxGJJQnLOZGbMsddI2PZo6Ny3XJt0rK3uBy2Os9Xch6Tb41rvrwBw65p9K9Ecc8clS8a2FIlUbTuHvnWas4ZL1r22JrHNsfb8116rIUtitpprGptvAMD18jsGwGRzizcAYL92VRj0JRtDiciSsS2Vz7h2bVtZe52WxKutQ20ba8v5LznvLktirjWf1HdKfwDgenjFoLGhhO2Wk7At1+bW13oqawUAt2cXhUH+rHAtIelLUpaMbWlv85oynzHP0u/pNpsTb+56rD33ZEnMuefRpS/e1FgAwGU5yy8fdykTkVwa1xdj7tiheeVxh/pMnVfSN2bqnLqONaZP6Dpml754KVbfuaw5l6FYyZpzmHveXfuTuTGTvrFJbUyXoVjJlHgAwGXY1VuJupKNMUnIkrEt9R1/7bktWadkzny6xmw9l9R/Try5c5gTb8iSmHPm2iX175vL1HgAwGVY9IrBJel7thUugfswANCSDx8DAACXXxikZ1Fj69LXBufmPgwA7MFVvJWoTJryt1rkbd6CwV65DwMA53Y1nzEY84yqpIo9cx8GAM7p6j58XEuuJFNcEvdhAOAcbuZbiQAAgG6+lQgAAFAYAAAACgMAAOBIYQAAACgMAAAAhQEAAHCkMAAAABQGAACAwgAAADhSGAAAAAoDAABAYQAAABwpDAAAAIUBAACgMAAAAI4UBgAAgMIAAABQGAAAAEcKAwAAQGEAAAAoDAAAgCOFAQAAcLjz+uh0eZanT58enj17dnjx4sXh5cuXp70AAMBS9+7dO9y/f//w6NGjw+PHj09725hdGPz666+HL7744vDdd9+d9gAAAK18/PHHhy+//PLw7rvvnvasa3Zh8PDhw8OPP/54ugYAALT24MGDN+/WaWHWZwy+/vprRQEAAGzs+fPnb3LxFmYVBt9+++3pEgAAsKVWufiswuCnn346XQIAALbUKhef9RmDu3fvni4BAABbe/Xq1enSevyOAQAAoDAAAAAUBgAAwJHCAAAAUBgAAAAKAwAA4EhhAAAAKAwAAACFAQAAcKQwAAAAFAYAAIDCAAAAOFIYAAAACgMAAEBhsKlXr1692Vrpi9/yuJck1qhcj388//zNVl7eypjj9c0rb+vrN1fr+Eu1nl/r+NduzPp1/W0CsB2FwQXxgLmOu3fvvtmmiGQm3/jDkvWpjY3tEtTmHduWho699XymmvN3CcC6FAYbav3A54G1rfcffPWnbetEK467V/naTJlnOaa8vnflfMvrW0j3xfy4Wx4bgOtx5/XR6fJoLZLPz77/5fDNh++drv2ua18ub4/+fX1q+p6Jz8+17FeuQ2ov+8f1fGzX+k2NnxuKH2O7+pXtQ8cp28eMjz6hvL6FuceMxCvXtS/J9/cVENEvYuV9u2KUx9yDmP9Sa8U5l77557dhUvYrx05ZiynHDbXj52pziT61Y5VzKK+P1fc32vf/C8Ctif8T17SrVwzKhL4UiX9sNRGjr0+X/MGmfODJH5CibcoNko+raR0/SfH64ufttWMvbb8mZRKVRCKUJ1C5PEmqJUz5+Lge8v1cnrgtu27fNXTFy48Zl+N6GDO/dD3a1547APuwm8JgKImPomCMqQVBkpLZkF/OjemzJCEeE3+JofhDx1zansT6TF2nf/7lSXXbUkqGYkvK5Kq8nsvbuvqN6bNn+frEGvGHMbdvrNvU9Uvx0rZk/Yfm1zXn3Nz5j5X+jxnz/wwA8+z2MwZTCoFcOWZOjLnyB6x49nyKNCbfzqk29ylzq40v901Zn7/+6+/VbUuRfMVWJj+RkLVKivauXB+mKddszhrma9/yflib2xrzB+C8LvbDx0NvO7pEKVEut71IxcA551V7tSBte5GSsEjKJEScm/sgAHPssjAYerUg/xxB2KJQyJ8pH/Os+VQtYnaJRH+OLecZaq8WpG2P1nimNgqNtaXb7hy3X0jntWR9lo4/5/nn815yDq3sfX7Jue+/ANduN99KlNQS/lzeXhYP5fUp0gNNnFPX5aR8QOpah3JcUo4NffGTse1D8cv22vzKfaW+GGPGhyl91zb32LVEqUzcyz7RnvaPuZwbih3KfkPiNlx7/Wvzq80t+nXNO1+TmqHxQ1qdf+ibf7lGc9egpoyd1GLk/cr2vvlNmdOc+ef6/kZb334AlyT+T1zTrgoDbkPfA39r5zz2Xtz6Guz9/Jcm1ufWsjBI/A0D/C79f7i2i/2MAZfJg/r5pLW/5fW/hPO/9aKgz63ffwG24BUDNpEe0MM57z97mQfkUkIdLrEwWGP+/jYBpsn/31yLwgAAAC5Mi8LAW4kAAACFAQAAoDAAAACOFAYAAIDCAAAAUBgAAABHCgMAAOC2CoP0fa8tvvM19MVvedxr8Nn3v5wujVOuZ/qBpfiRpfzyXgzNz/0DADg3rxhMIHnbh3Q7TP2RvUjGy20v0vm4fwEA53RThUFKvlr+anPr+MwrCpL3H3z1py327Uk6L8UBAHAud14fnS6Ptnby25cM5ccq+5XzKJPG/Ho+tmv+U+PnhuLH2K5+ZfvQccr2MeOjTyiv90lv9fnmw/f+9JafdD1EeyivJ+XbhWr9o085NkyZc5/0akFZGJSvIOTt0T/61IqKvvFjDZ1f3+0LANyOyAnWtKtXDPJkp0x88oQo2qYsSD6upnX8JMXri5+31469tH2pSN4jaS8T/T752DxGLu9Tix3nt1RfUZD2R1uZ6Me4tNXakr7xY7S67QAAhuymMMgTvq7kb0yfJUnVmPhLDMUfOubS9iTWZ8465cl8LbFfqkXMUl+yHgl9kl8OtX25ofFrSLfxmNsZAGCqq/qMQZ4wzXl2OY3Jt3OqzX3K3Grjy31T12eJeBUgtnNaI2lvlfgDAJyLbyXKpES53PYiFQN7nNcUqTiI7RzFQbwVCACA/++iCoP8mfIxz5pP1SJml0j052g5zxR7TPyU2He99efcrwjMlb/NaM7nA5aOH2Ps7QMAMNVuvpUoYnZdTsqEqGse5bikHBv64idj24fil+21+ZX7Sn0xxowPfX3jGGV7mezXioLoE68I5H2Gxtf6144x5TxzXYl6/gpC2adsG3q1oW/8WEPn13X7AAC3JXKCNe2iMGBbc5LrrkR9a3MLg0sx5vyufQ0AgGEtCgOfMbgxl55Uprm3+EPYg6HbJrVf+u0HAOyXwuBGRFJ5Da6xOBiT8Kd2RQEA0Iq3EgEAwIVp8SSpVwwAAACFAQAAoDAAAACOFAYAAIDCAAAAUBgAAABHCgMAAOC2fscgvu+11fz74o/5Aas9yL8Td+p8l4xd6h/PP3/z7/sPvvrT5b2IOSVL5zX3/Fquy97XHwCuTZ53rcUrBhO0uAH2KCX1fYn9//x3fR2Gxp1TSlbLbW19MVOSLFEGAPbspgqD1onrnhPjtXQVBZcgkvPYWhQHW4j5TzV3HABwG3bxVqK+Z+LzY5X9ynmk9rJ/XM/Hds1/avzcUPwY29WvbB86Ttk+Znz0CeX1pLYvpKLgv/5299//dumLcS6pCCiT4nJfWSjU+ueivavAqCXhtXmEvuPXjlG2D10Pc46fDLWP0Xf/BADGi8fUNe3qFYM8WaglrEnaH21TFiQfV9M6fpLi9cXP22vHXtq+VF8xcGnKJDeup2Q3Et68T197vi8ux/Wxho6fx432KcaO6zrG0PwAgMu3m8IgJbMhv5wb02dJQjwm/hJD8YeOubQ9ifVpUTgs8c+/PKlua0qJbGxJmfzm18u2ZKh9qdbx+6Q1GTrmGvNL99Ex91MAYHtX9RmDPOGIZ8+nSGPy7Zxqc58yt9r4ct/U9Wnpr//6e3VbU0pm8618xjsvHMq2ZKh9qdbxl9r7/ACAZXwrUSYlyuW2F6kY2OO81lJ7tSBtWyoLh7TlhtqXah1/qb3PDwBY5qIKg/yZ8jHPmk/VImaXSPTn2HKeW6m9WpC2LQ09C976WfK14s+Ns8X5p/vuNd5/AeAa7OZbiSJm1+WkTCi65lGOS8qxoS9+MrZ9KH7ZXptfua/UF2PM+NDXt6+t9lWltQ8kT5nLVmpJbfmM91CfqTGGxiZT44fUt+vYaX/ZPuf4XfFzZZ8hcR/e2/0DAC5NPKau6aZ++ZjfzS0MxtpjYXBtysT/krh/AMByLQoDnzG4MZKyy9f17P/epfue+x8A7JdXDG5EXlX23X5j+9UsGUu/obf5AAC3Jc+71qIwAACAC9OiMPBWIgAAQGEAAAAoDAAAgCOFAQAAoDAAAAAUBgAAwJHCAAAAUBiMlb4rNrYWPvv+l39vW2h1Hn1arl/SF/8c5zvF3ucHAFw/hcFI6UfdWv6w2zcfvvdm20JKQi/xR+quOXlOt4fiAAA4J4XBjTlnUdC6uGodv7U0d8UBAHAud14fnS6P1ir5KpOi8jh97ZHwRp/aHJfED3GcmjHjh6S3EnW9clC+zajsV3sbUtmnNv9y3rm879D5lbHz6/nYclyYGj83FD/GdvUr24eOU7aPGR99Qnk9qe3L9cUHAG5H5ARr2t0rBinhiS2XJ0TRVi5IJFVp62uLLTcmfp+l44dE0p+/5SgvBKKgyNvj3xBr0CVvK/stPb98XE3r+Emcf1f8vL127KXtYywZCwCwxG4Kg0iq+uTttb5D44cMxR+ydPyQPNEvk/6lxsx9TJ8lSe2Y+EsMxR865tL2JNZnSeEw5jgAAFPdzGcMUjKVkrHYWsjjtzrGnuUJazr/qQnsntavNvcpc6uNL/dNXR8AgJZu6sPHKRGLrUXimcePbUvp7USxrf2KwhbOvX590v1lj/MCAFjLrgqDoWQ9b2+R2C+NP2ZM6jN37uVnCkqpGIithaXrM6RFzC7pWHMT/C3nWUrHPufxAYDrdXXfShRq13O1cxiKXzPUpzxO9Cn31xL9JE/yyz59bUmtQEjHr80p9nVdTmLuoYwTuo5R0xc/Gds+FL9sr82v3FfqizFmfOjrOxQn5jD2WADAdSrzkjXsqjBgvlQYlIVAbd+UBJY2lhQGidsQAGhRGNzUZwz4vahrcUdinCVFQWof6gMAMJdXDK5I31uNShLMbaX1DrV1d3sAAFPkucVaFAYAAHBhWhQG3koEAAAoDAAAAIUBAABwpDAAAAAUBgAAgMIAAAA4UhgAAAAKAwAAQGEAAAAcKQwAAACFAQAAoDAAAACOFAYAAMC8wuDtt98+XQIAALbUKhefVRh88MEHp0sAAMCWWuXiswqDJ0+enC4BAABbapWLzyoMPv3008Mnn3xyugYAAGzh4cOHb3LxFu68PjpdnuTnn38+fPTRR4fffvvttAcAAGjlrbfeOvzwww+Hd95557RnXbMLg/D06dPDs2fPDi9evDi8fPnytBcAAFjq3r17h/v37x8ePXp0ePz48WlvG4sLAwAA4PL5HQMAAEBhAAAAKAwAAIAjhQEAAKAwAAAAFAYAAMCRwgAAAFAYAAAACgMAAOBIYQAAACgMAAAAhQEAAHCkMAAAABQGAACAwgAAADhSGAAAAAoDAABAYQAAABwpDAAAAIUBAACgMAAAAI4UBgAAgMIAAABQGAAAAEcKAwAAQGEAAAAoDAAAgCOFAQAAoDAAAAAUBgAAwJHCAAAAUBgAAAAKAwAA4HA4/B9DBVPs8PK5FwAAAABJRU5ErkJggg==;" vertex="1" parent="1">
          <mxGeometry y="270" width="417.35" height="110" as="geometry" />
        </mxCell>
        <mxCell id="VKKiK4Q3fec19sRekU4R-15" value="" style="group" vertex="1" connectable="0" parent="1">
          <mxGeometry x="20" y="390" width="130" height="140" as="geometry" />
        </mxCell>
        <mxCell id="VKKiK4Q3fec19sRekU4R-16" value="" style="edgeStyle=none;orthogonalLoop=1;jettySize=auto;html=1;rounded=0;endArrow=none;endFill=0;" edge="1" parent="VKKiK4Q3fec19sRekU4R-15">
          <mxGeometry width="80" relative="1" as="geometry">
            <mxPoint y="30" as="sourcePoint" />
            <mxPoint x="120" y="30" as="targetPoint" />
            <Array as="points" />
          </mxGeometry>
        </mxCell>
        <mxCell id="VKKiK4Q3fec19sRekU4R-17" value="" style="edgeStyle=none;orthogonalLoop=1;jettySize=auto;html=1;rounded=0;endArrow=none;endFill=0;" edge="1" parent="VKKiK4Q3fec19sRekU4R-15">
          <mxGeometry width="80" relative="1" as="geometry">
            <mxPoint x="60" as="sourcePoint" />
            <mxPoint x="60" y="140" as="targetPoint" />
            <Array as="points" />
          </mxGeometry>
        </mxCell>
        <mxCell id="VKKiK4Q3fec19sRekU4R-18" value="valor" style="text;html=1;align=center;verticalAlign=middle;whiteSpace=wrap;rounded=0;" vertex="1" parent="VKKiK4Q3fec19sRekU4R-15">
          <mxGeometry x="60" width="60" height="30" as="geometry" />
        </mxCell>
        <mxCell id="VKKiK4Q3fec19sRekU4R-19" value="movieLibrary" style="text;html=1;align=center;verticalAlign=middle;whiteSpace=wrap;rounded=0;" vertex="1" parent="VKKiK4Q3fec19sRekU4R-15">
          <mxGeometry x="-10" width="60" height="30" as="geometry" />
        </mxCell>
        <mxCell id="VKKiK4Q3fec19sRekU4R-20" value="log(mov..)" style="text;html=1;align=center;verticalAlign=middle;whiteSpace=wrap;rounded=0;" vertex="1" parent="VKKiK4Q3fec19sRekU4R-15">
          <mxGeometry y="30" width="60" height="30" as="geometry" />
        </mxCell>
        <mxCell id="VKKiK4Q3fec19sRekU4R-21" value="[&quot;Bambi&quot;, &quot;Beetlejuice&quot;,...,&lt;div&gt;&quot;Toy Story&quot;,&lt;/div&gt;&lt;div data-sider-select-id=&quot;5b3dd81d-1c13-439b-95f8-d48f6d1a9551&quot;&gt;&quot;Zoro&quot;]&lt;/div&gt;" style="text;html=1;align=center;verticalAlign=middle;whiteSpace=wrap;rounded=0;" vertex="1" parent="VKKiK4Q3fec19sRekU4R-15">
          <mxGeometry x="70" y="30" width="60" height="70" as="geometry" />
        </mxCell>
      </root>
    </mxGraphModel>
  </diagram>
</mxfile>
